<svg width="16" height="16" viewBox="0 0 16 16" fill="none" xmlns="http://www.w3.org/2000/svg">
<path d="M13.5827 10.0365C13.8772 10.0365 14.1159 10.2751 14.1159 10.5697V12.3379C14.1158 13.3687 13.2802 14.2051 12.2493 14.2051H3.74935C2.71849 14.2051 1.88293 13.3687 1.88281 12.3379V10.5697C1.88281 10.2751 2.12146 10.0365 2.41602 10.0365C2.71057 10.0365 2.94922 10.2751 2.94922 10.5697V12.3379C2.94933 12.7796 3.30759 13.138 3.74935 13.138H12.2493C12.6911 13.138 13.0494 12.7796 13.0495 12.3379V10.5697C13.0495 10.2751 13.2881 10.0365 13.5827 10.0365ZM7.99935 1.79559C8.29379 1.79572 8.53255 2.03432 8.53255 2.3288V9.66604L11.9616 6.237C12.1698 6.02875 12.5079 6.0288 12.7161 6.237C12.9243 6.44529 12.9244 6.78332 12.7161 6.99156L8.3763 11.3307C8.27635 11.4306 8.14065 11.4869 7.99935 11.487C7.85798 11.4869 7.72171 11.4307 7.62175 11.3307L3.28255 6.99156C3.0744 6.78332 3.07444 6.44526 3.28255 6.237C3.49078 6.02888 3.8282 6.02893 4.03646 6.237L7.4655 9.66604V2.3288C7.4655 2.03432 7.7049 1.79571 7.99935 1.79559Z" fill="#737A87"/>
</svg>
